# xmcd
# 
# Track frame offsets:
#     150
#     11688
#     23231
#     34699
#     50780
#     63742
#     77506
#     86939
#     97286
#     110661
#     122233
#     133982
#     145093
#     160005
#     177380
#     191823
#     203335
#     218596
#     231762
#     247383
#     258691
#     281304
#     291503
#     317003
# 
# Disc length: 4438
# 
# Revision: 1
# Processed by: cddbd v1.5.2PL0 Copyright (c) Steve Scherf et al.
# Submitted via: fre:ac v1.0.31
# 
DISCID=76115418
DTITLE=Various Artist - Blues For Hippies
DYEAR=1997
DGENRE=Blues
TTITLE0=Jimmy Dawkins - The Things I Used to Do
TTITLE1=Charles Friday - Five Minutes More
TTITLE2=Slim Harpo - Boogie Chillun
TTITLE3=Otis Spann - Bloody Murder
TTITLE4=Tiny Watkins - Fine Drivin' Machine
TTITLE5=Tabby Thomas - Keep On Trying
TTITLE6=Marion James - Give Me Your Love
TTITLE7=Charles Friday - Baby! I'm Stickin' To You
TTITLE8=Mildred Woodlard - I've Waited So Long
TTITLE9=Jimmy Dawkins - High Cost of Living
TTITLE10=Willie Baker - Don't Let Nobody Know
TTITLE11=Tabby Thomas - Mr Buzzerd
TTITLE12=Rose Davis - Sittin' And Drinking
TTITLE13=Jimmy Dawkins - Make My Way In This World
TTITLE14=Bobby Powell - Thank You
TTITLE15=Charles Friday - The Right One
TTITLE16=Jimmy Dawkins - Think Twice Before You Speak
TTITLE17=Charles Friday - I Believe
TTITLE18=Slim Harpo - I'm So Sorry
TTITLE19=Tabby Thomas - I Say I
TTITLE20=Jimmy Dawkins - Chicago On My Mind
TTITLE21=James Stewart - Jimmy's Blues
TTITLE22=Jimmy Dawkins - All For Business
TTITLE23=Otis Spann - Blues For Hippies
EXTD=
EXTT0=
EXTT1=
EXTT2=
EXTT3=
EXTT4=
EXTT5=
EXTT6=
EXTT7=
EXTT8=
EXTT9=
EXTT10=
EXTT11=
EXTT12=
EXTT13=
EXTT14=
EXTT15=
EXTT16=
EXTT17=
EXTT18=
EXTT19=
EXTT20=
EXTT21=
EXTT22=
EXTT23=
PLAYORDER=
